<?xml version="1.0" standalone="no"?>
<!DOCTYPE svg PUBLIC "-//W3C//DTD SVG 20010904//EN"
 "http://www.w3.org/TR/2001/REC-SVG-20010904/DTD/svg10.dtd">
<svg version="1.0" xmlns="http://www.w3.org/2000/svg"
 width="1200.000000pt" height="800.000000pt" viewBox="0 0 1200.000000 800.000000"
 preserveAspectRatio="xMidYMid meet">

<g transform="translate(0.000000,800.000000) scale(0.100000,-0.100000)"
fill="#000000" stroke="none">
<path d="M5994 7297 c-3 -8 0 -26 6 -42 l11 -29 15 29 c8 16 12 35 10 42 -7
17 -35 17 -42 0z"/>
<path d="M5973 7138 c-34 -69 -43 -106 -43 -188 0 -82 -5 -90 -51 -90 -10 0
-19 -3 -20 -7 0 -5 -3 -21 -5 -38 -5 -39 -5 -50 2 -107 6 -46 7 -47 22 -28 10
10 29 22 43 25 24 6 27 3 32 -32 10 -59 8 -121 -4 -129 -18 -11 -29 17 -29 73
0 52 -15 77 -31 52 -5 -8 -9 -33 -9 -56 0 -68 -14 -93 -52 -94 -28 0 -30 -2
-13 -10 16 -7 13 -9 -15 -6 -58 7 -60 3 -60 -89 0 -46 -4 -84 -8 -84 -16 0
-44 38 -57 77 l-13 38 -162 5 c-140 4 -163 7 -171 23 -12 20 -39 23 -39 3 0
-17 -44 -26 -126 -26 -52 0 -68 4 -85 21 -12 12 -29 19 -40 16 -10 -3 -34 0
-53 5 -30 9 -40 7 -78 -15 -24 -14 -53 -37 -65 -51 -12 -14 -35 -28 -50 -31
-44 -10 -97 -41 -112 -67 -12 -22 -11 -28 10 -64 25 -39 25 -40 19 -247 -5
-207 -5 -208 -30 -227 l-25 -19 100 -3 c189 -6 1991 -7 2299 -1 249 5 306 8
292 18 -29 22 -36 74 -36 267 l0 186 26 32 c25 29 25 32 10 49 -9 10 -16 22
-16 28 0 10 -52 36 -100 49 -14 4 -42 22 -63 41 -21 18 -53 41 -71 49 -30 15
-35 15 -66 -1 -23 -12 -35 -14 -38 -6 -6 18 -30 13 -42 -9 -10 -18 -21 -20
-105 -20 -70 0 -97 4 -109 15 -18 18 -33 19 -38 3 -3 -10 -50 -14 -168 -18
l-164 -5 -8 -30 c-4 -16 -21 -46 -37 -65 l-30 -35 -1 86 c0 49 -5 90 -11 96
-6 6 -26 9 -45 6 -22 -4 -34 -2 -34 6 0 6 -6 11 -13 11 -28 0 -47 36 -47 86 0
62 -15 89 -24 44 -3 -18 -6 -47 -6 -66 0 -36 -14 -53 -24 -28 -3 9 -5 57 -5
107 1 51 4 83 6 72 6 -25 21 -35 51 -35 14 0 22 -6 23 -17 1 -10 5 5 9 32 4
28 4 70 1 95 -5 40 -9 45 -36 50 -22 4 -31 11 -33 29 -3 19 -6 21 -13 10 -6
-10 -9 -4 -9 19 0 22 -5 32 -16 32 -8 0 -12 5 -8 11 3 6 15 9 25 6 34 -9 23
63 -24 165 -29 62 -54 64 -84 6z m55 -30 c45 -5 39 -34 -9 -46 -24 -6 -46 -9
-51 -6 -13 8 -9 38 9 64 15 21 18 22 21 8 2 -10 15 -18 30 -20z m9 -178 c1
-42 0 -40 -13 19 -6 30 -15 21 -24 -26 l-8 -38 -1 41 c-1 45 5 56 29 52 10 -2
15 -16 17 -48z m-61 -6 c1 -32 1 -34 -3 -6 -2 17 -8 32 -14 32 -5 0 -9 5 -9
11 0 6 6 9 13 7 6 -3 13 -22 13 -44z m81 -6 c-3 -8 -6 -5 -6 6 -1 11 2 17 5
13 3 -3 4 -12 1 -19z m-102 -87 c-7 -12 -64 -25 -72 -17 -7 7 35 24 60 25 10
1 16 -3 12 -8z m164 3 c17 -4 31 -11 31 -16 0 -6 -8 -7 -17 -3 -10 4 -44 9
-76 10 -32 2 -61 6 -64 9 -8 8 86 8 126 0z m24 -50 c34 -13 16 -22 -25 -12
-41 9 -155 6 -228 -7 -31 -5 -33 -5 -15 7 11 6 38 15 60 19 44 8 181 4 208 -7z
m-99 -70 c13 -5 16 -22 15 -83 0 -83 -17 -74 -18 11 -1 37 -6 50 -23 62 -17
12 -19 16 -6 16 9 0 23 -3 32 -6z m-50 -95 c-6 -70 -5 -79 11 -85 10 -4 26 -2
37 5 17 11 19 10 16 -6 -2 -14 -13 -18 -46 -19 l-42 -1 0 76 c0 85 8 124 22
115 5 -4 6 -38 2 -85z m-64 -109 c0 -5 -16 -10 -36 -10 -21 0 -33 4 -29 10 3
6 19 10 36 10 16 0 29 -4 29 -10z m240 0 c0 -5 -16 -10 -35 -10 -19 0 -35 5
-35 10 0 6 16 10 35 10 19 0 35 -4 35 -10z m-220 -30 c0 -5 -19 -10 -42 -9
-33 0 -38 2 -23 9 28 12 65 12 65 0z m120 0 c0 -5 -22 -10 -49 -10 -28 0 -53
5 -56 10 -4 6 15 10 49 10 31 0 56 -4 56 -10z m85 0 c15 -7 10 -9 -22 -9 -24
-1 -43 4 -43 9 0 12 37 12 65 0z m-329 -56 c4 -26 2 -54 -4 -67 l-11 -22 0 22
c-1 12 -6 34 -12 50 -8 22 -12 24 -19 13 -6 -8 -10 -30 -10 -47 0 -18 -4 -33
-10 -33 -5 0 -10 20 -10 45 0 31 5 47 18 54 13 8 14 10 2 11 -13 0 -13 1 0 10
33 21 49 12 56 -36z m444 36 c12 -8 10 -10 -10 -11 -16 0 -19 -3 -10 -6 23 -9
30 -24 30 -71 0 -26 -4 -41 -10 -37 -5 3 -10 21 -10 38 0 18 -4 38 -9 46 -15
23 -31 2 -31 -40 0 -24 -4 -38 -10 -34 -13 8 -13 105 1 105 5 0 7 5 4 10 -8
13 35 13 55 0z m-1266 -21 c20 -12 36 -27 36 -34 0 -22 29 -45 57 -45 14 0 37
-6 51 -14 15 -8 35 -17 45 -20 10 -3 15 -10 12 -16 -3 -5 -1 -10 4 -10 6 0 11
-7 11 -16 0 -14 -9 -16 -62 -10 -34 4 -71 12 -81 18 -13 7 -23 6 -30 -1 -14
-14 -122 -14 -148 0 -15 8 -24 7 -35 -2 -14 -11 -118 -18 -128 -8 -11 11 7 49
24 49 10 0 20 7 24 15 3 9 18 15 36 15 38 0 70 16 70 35 0 13 57 65 72 65 4 0
23 -9 42 -21z m940 5 c8 -20 8 -68 0 -89 -10 -24 -24 1 -24 43 0 22 -5 32 -15
32 -10 0 -15 -10 -15 -29 0 -16 -3 -36 -6 -45 -12 -32 -24 -15 -24 34 0 43 3
52 23 60 34 13 54 12 61 -6z m126 -33 c0 -27 -3 -57 -6 -66 -10 -25 -24 2 -24
48 0 25 -5 40 -16 44 -20 7 -34 -13 -34 -49 0 -14 -3 -34 -6 -43 -11 -29 -24
4 -24 63 l0 52 55 0 55 0 0 -49z m93 29 c12 -10 4 -105 -8 -103 -5 1 -11 15
-13 30 -8 86 -26 92 -36 13 -4 -28 -11 -48 -16 -45 -11 7 -14 108 -3 119 8 8
64 -2 76 -14z m941 -14 c17 -18 37 -41 44 -50 8 -10 28 -16 52 -16 29 0 42 -5
50 -20 6 -11 16 -20 23 -20 7 0 13 -9 14 -20 2 -18 -4 -20 -55 -18 l-57 1 50
7 c28 4 -37 7 -150 7 -113 1 -189 -3 -175 -7 19 -6 11 -8 -32 -9 -55 -1 -57 0
-49 22 5 12 11 21 15 19 3 -1 23 7 43 18 21 11 46 20 56 20 11 0 40 23 66 50
26 28 53 50 60 50 7 0 27 -15 45 -34z m-1474 -26 c0 -13 -489 -13 -510 0 -10
6 74 10 248 10 168 0 262 -4 262 -10z m1290 0 c0 -6 -93 -10 -260 -10 -167 0
-260 4 -260 10 0 6 93 10 260 10 167 0 260 -4 260 -10z m-1341 -36 c2 -2 -70
-3 -160 -2 -119 1 -145 3 -94 8 67 5 245 1 254 -6z m1190 0 c2 -2 -70 -3 -160
-2 -127 1 -146 3 -84 7 77 6 236 2 244 -5z m-1184 -34 c-44 -11 -218 -11 -235
0 -10 6 31 9 125 9 86 -1 128 -4 110 -9z m1100 0 c-28 -12 -242 -12 -250 0 -4
6 42 10 132 9 86 0 131 -4 118 -9z m-538 -31 c-23 -13 -272 -8 -286 6 -7 7 42
9 147 7 113 -2 152 -6 139 -13z m-469 -6 c57 -15 -15 -23 -205 -23 -199 0
-238 4 -227 21 6 10 396 12 432 2z m1101 -2 c27 -17 -14 -26 -153 -29 -145 -5
-317 14 -266 29 36 10 402 10 419 0z m309 -8 c-10 -2 -26 -2 -35 0 -10 3 -2 5
17 5 19 0 27 -2 18 -5z m-1243 -204 c-1 -151 -4 -190 -17 -219 -17 -34 -17
-28 -18 181 0 119 3 219 7 223 23 23 28 -11 28 -185z m313 134 c-5 -44 -28
-40 -28 5 0 21 3 42 7 46 11 11 25 -22 21 -51z m56 35 c9 -36 7 -388 -3 -388
-5 0 -12 8 -17 18 -9 20 -18 356 -10 377 8 22 23 18 30 -7z m-1454 -5 c1 -17
1 -17 11 -1 8 15 28 17 139 17 l130 1 2 -98 2 -97 3 98 4 98 79 -2 79 -2 7
-66 c4 -36 4 -137 0 -223 l-7 -158 118 -1 c65 0 155 0 200 1 48 1 84 -3 88
-10 4 -7 -123 -10 -435 -10 -273 1 -438 5 -435 11 4 5 101 9 231 9 123 0 224
3 224 8 -1 27 -24 31 -221 38 -205 7 -206 7 -212 -15 -3 -11 -9 -21 -15 -21
-16 0 -22 67 -22 258 0 155 2 182 15 182 8 0 15 -8 15 -17z m557 -130 c6 -130
-2 -243 -16 -243 -11 0 -24 329 -15 364 13 54 25 7 31 -121z m166 80 c14 -145
4 -325 -17 -317 -8 3 -11 59 -10 182 1 202 1 202 13 202 4 0 11 -30 14 -67z
m305 -133 c0 -173 -10 -242 -21 -150 -9 71 -9 298 0 330 l7 25 7 -25 c4 -14 7
-95 7 -180z m152 54 c0 -78 -3 -149 -6 -158 -15 -39 -24 4 -24 114 0 113 -1
118 -20 113 -18 -5 -20 0 -20 35 0 39 1 40 35 39 l35 -1 0 -142z m39 49 c1
-43 -11 -57 -23 -27 -9 22 -7 109 2 118 9 10 19 -35 21 -91z m80 -55 c-9 -23
-18 -28 -45 -28 -18 0 -36 5 -39 10 -4 6 10 10 34 10 l41 0 0 58 c0 88 14 122
18 43 2 -35 -2 -77 -9 -93z m51 5 c0 -145 -10 -205 -24 -149 -9 36 5 296 16
296 4 0 8 -66 8 -147z m860 12 l6 -130 2 122 c2 134 6 143 69 143 66 0 73 -7
75 -74 l2 -61 3 60 c2 33 10 63 16 67 14 9 109 11 131 2 14 -5 16 -31 15 -188
0 -187 -10 -282 -24 -238 -7 22 -9 22 -210 22 -185 0 -204 2 -208 18 -3 9 -5
3 -6 -15 0 -17 -5 -34 -10 -37 -14 -9 -21 77 -21 260 0 197 -8 183 100 180
l55 -1 5 -130z m-1576 109 c9 -24 7 -337 -3 -352 -16 -26 -21 18 -21 194 0
158 7 203 24 158z m174 -164 c2 -175 -3 -230 -18 -180 -5 14 -8 101 -9 193 -1
131 2 168 12 165 9 -4 13 -50 15 -178z m85 113 c14 -139 4 -315 -17 -307 -13
5 -10 374 3 374 4 0 11 -30 14 -67z m87 -123 c0 -104 -4 -190 -9 -190 -10 0
-21 254 -14 328 3 28 9 52 14 52 5 0 9 -85 9 -190z m568 -32 c-4 -205 -22
-195 -26 14 -1 90 0 174 4 188 14 51 25 -50 22 -202z m86 185 c10 -65 7 -331
-5 -338 -6 -4 -13 -4 -17 -1 -19 19 -12 376 8 376 4 0 10 -17 14 -37z m86
-158 c0 -167 -7 -222 -24 -179 -3 9 -6 89 -6 179 0 90 3 170 6 179 17 43 24
-12 24 -179z m89 -7 c1 -145 -3 -178 -20 -178 -11 0 -12 363 -1 374 13 14 20
-47 21 -196z m84 170 c7 -51 2 -333 -7 -347 -19 -30 -26 21 -26 190 0 97 3
179 7 182 13 14 21 6 26 -25z m86 -175 c1 -154 -4 -197 -20 -171 -11 16 -12
362 -1 372 13 14 20 -47 21 -201z m-479 17 c0 -88 -4 -151 -10 -155 -7 -4 -10
50 -10 155 0 105 3 159 10 155 6 -4 10 -67 10 -155z m-364 86 c8 -33 1 -91
-11 -89 -14 4 -19 113 -6 113 6 0 13 -11 17 -24z m262 -41 c-4 -70 -28 -72
-28 -2 0 29 3 57 7 60 14 15 24 -12 21 -58z m-888 -17 c0 -16 -4 -28 -10 -28
-5 0 -10 19 -10 43 0 31 3 38 10 27 5 -8 10 -27 10 -42z m90 -1 c0 -19 -4 -27
-12 -25 -15 5 -22 42 -13 66 5 14 7 14 15 2 6 -8 10 -28 10 -43z m80 13 c0
-22 -4 -40 -10 -40 -5 0 -10 18 -10 40 0 22 5 40 10 40 6 0 10 -18 10 -40z
m88 -4 c-2 -15 -7 -28 -13 -29 -12 -2 -19 38 -10 60 9 25 27 1 23 -31z m91
-13 c1 -14 -5 -23 -14 -23 -16 0 -20 35 -8 66 6 16 7 16 14 -2 4 -10 8 -29 8
-41z m81 11 c0 -19 -4 -34 -9 -34 -10 0 -18 38 -13 63 6 29 22 8 22 -29z m650
1 c0 -39 -16 -55 -25 -26 -7 24 4 73 16 65 5 -3 9 -20 9 -39z m86 -20 c-4 -14
-11 -23 -16 -20 -12 7 -13 68 -3 79 12 12 26 -31 19 -59z m174 30 c0 -32 -10
-56 -21 -49 -10 6 -12 67 -3 77 12 11 24 -3 24 -28z m168 -16 c-2 -19 -7 -33
-13 -32 -12 3 -19 49 -10 71 10 26 27 -2 23 -39z m-258 7 c0 -19 -4 -37 -9
-40 -11 -7 -23 37 -15 58 11 28 24 17 24 -18z m170 -1 c0 -19 -4 -35 -10 -35
-5 0 -10 16 -10 35 0 19 5 35 10 35 6 0 10 -16 10 -35z m-635 -53 c14 -9 19
-87 8 -104 -5 -8 -10 5 -14 37 l-6 50 -1 -47 c-2 -58 -22 -65 -22 -8 0 51 -17
52 -23 3 -3 -30 -4 -27 -3 10 1 26 -2 47 -6 47 -5 0 -8 -22 -8 -50 0 -29 -5
-50 -11 -50 -10 0 -12 94 -2 113 5 9 75 9 88 -1z m-157 -74 c-2 -24 -7 -43
-13 -43 -5 0 -11 19 -13 43 -3 33 0 42 13 42 13 0 16 -9 13 -42z m260 0 c-3
-47 -21 -55 -26 -12 -4 31 4 54 18 54 7 0 10 -17 8 -42z m-888 -23 c0 -39 -16
-55 -25 -26 -7 24 4 73 16 65 5 -3 9 -20 9 -39z m88 -6 c-2 -19 -7 -33 -13
-32 -12 3 -19 49 -10 71 10 26 27 -2 23 -39z m172 0 c0 -28 -4 -39 -12 -37
-14 5 -23 51 -14 74 10 27 26 4 26 -37z m170 6 c0 -39 -16 -55 -25 -26 -7 24
4 73 16 65 5 -3 9 -20 9 -39z m-260 0 c0 -19 -4 -35 -10 -35 -5 0 -10 16 -10
35 0 19 5 35 10 35 6 0 10 -16 10 -35z m176 20 c8 -21 -4 -67 -16 -60 -13 8
-13 75 0 75 6 0 13 -7 16 -15z m734 -25 c0 -16 -4 -32 -10 -35 -12 -7 -24 39
-16 61 9 23 26 7 26 -26z m86 -26 c-3 -8 -10 -12 -16 -9 -12 7 -14 58 -3 69
10 10 26 -41 19 -60z m84 26 c0 -27 -15 -48 -26 -37 -3 3 -2 21 1 41 8 41 25
39 25 -4z m88 -4 c-2 -15 -7 -28 -13 -29 -12 -2 -19 38 -10 60 9 25 27 1 23
-31z m82 10 c0 -19 -4 -38 -10 -41 -6 -4 -10 10 -10 34 0 23 5 41 10 41 6 0
10 -15 10 -34z m88 -10 c-2 -15 -7 -28 -13 -29 -12 -2 -19 38 -10 60 9 25 27
1 23 -31z m-673 -36 c-8 -13 -155 -13 -175 0 -10 7 16 10 83 10 63 0 96 -4 92
-10z m-121 -29 c4 -5 2 -21 -4 -36 -9 -24 -14 -26 -62 -23 -43 2 -54 7 -56 22
-3 11 4 26 14 33 20 15 100 18 108 4z m149 -1 c23 0 27 -4 27 -31 0 -30 0 -30
-52 -27 -47 3 -52 6 -59 30 -8 30 3 40 36 33 11 -3 32 -5 48 -5z m-105 -37
c-4 -22 -22 -20 -26 1 -2 10 3 16 13 16 10 0 15 -7 13 -17z m1247 -43 c-29
-13 -918 -13 -910 0 4 6 170 10 468 9 267 0 454 -4 442 -9z"/>
<path d="M4950 6401 c0 -6 5 -13 10 -16 6 -3 10 1 10 9 0 9 -4 16 -10 16 -5 0
-10 -4 -10 -9z"/>
<path d="M7050 6396 c0 -9 5 -16 10 -16 6 0 10 4 10 9 0 6 -4 13 -10 16 -5 3
-10 -1 -10 -9z"/>
<path d="M4790 6220 c0 -11 7 -20 15 -20 8 0 15 9 15 20 0 11 -7 20 -15 20 -8
0 -15 -9 -15 -20z"/>
<path d="M4860 6220 c0 -11 5 -20 10 -20 6 0 10 9 10 20 0 11 -4 20 -10 20 -5
0 -10 -9 -10 -20z"/>
<path d="M4920 6220 c0 -11 7 -20 15 -20 8 0 15 9 15 20 0 11 -7 20 -15 20 -8
0 -15 -9 -15 -20z"/>
<path d="M5000 6220 c0 -11 5 -20 10 -20 6 0 10 9 10 20 0 11 -4 20 -10 20 -5
0 -10 -9 -10 -20z"/>
<path d="M5070 6220 c0 -11 5 -20 10 -20 6 0 10 9 10 20 0 11 -4 20 -10 20 -5
0 -10 -9 -10 -20z"/>
<path d="M5140 6214 c0 -14 4 -23 10 -19 6 3 10 15 10 26 0 10 -4 19 -10 19
-5 0 -10 -12 -10 -26z"/>
<path d="M4790 6099 c0 -52 24 -48 28 4 2 28 -1 37 -12 37 -12 0 -16 -11 -16
-41z"/>
<path d="M4857 6133 c-4 -3 -7 -21 -7 -40 0 -23 5 -33 15 -33 11 0 15 11 15
40 0 38 -8 49 -23 33z"/>
<path d="M4924 6126 c-8 -22 -1 -59 14 -64 8 -2 12 9 12 37 0 40 -15 55 -26
27z"/>
<path d="M4997 6133 c-4 -3 -7 -21 -7 -40 0 -23 5 -33 15 -33 11 0 15 11 15
40 0 38 -8 49 -23 33z"/>
<path d="M5072 6104 c2 -22 8 -38 13 -36 15 3 12 65 -3 70 -10 3 -13 -6 -10
-34z"/>
<path d="M5137 6133 c-4 -3 -7 -21 -7 -40 0 -23 5 -33 15 -33 11 0 15 11 15
40 0 38 -8 49 -23 33z"/>
<path d="M4772 6020 c0 -19 2 -27 5 -17 2 9 2 25 0 35 -3 9 -5 1 -5 -18z"/>
<path d="M4790 5959 c0 -52 24 -48 28 4 2 28 -1 37 -12 37 -12 0 -16 -11 -16
-41z"/>
<path d="M4857 5993 c-4 -3 -7 -22 -7 -40 0 -47 24 -38 28 10 3 34 -5 46 -21
30z"/>
<path d="M4924 5975 c-7 -28 0 -55 16 -55 5 0 10 18 10 40 0 44 -16 54 -26 15z"/>
<path d="M4994 5986 c-8 -22 -1 -59 14 -64 8 -2 12 9 12 37 0 40 -15 55 -26
27z"/>
<path d="M5077 5993 c-4 -3 -7 -22 -7 -40 0 -47 24 -38 28 10 3 34 -5 46 -21
30z"/>
<path d="M5137 5993 c-4 -3 -7 -22 -7 -40 0 -47 24 -38 28 10 3 34 -5 46 -21
30z"/>
<path d="M4790 5890 c0 -5 7 -10 15 -10 8 0 15 5 15 10 0 6 -7 10 -15 10 -8 0
-15 -4 -15 -10z"/>
<path d="M4850 5890 c0 -5 7 -10 15 -10 8 0 15 5 15 10 0 6 -7 10 -15 10 -8 0
-15 -4 -15 -10z"/>
<path d="M4925 5890 c-3 -5 1 -10 9 -10 9 0 16 5 16 10 0 6 -4 10 -9 10 -6 0
-13 -4 -16 -10z"/>
<path d="M4990 5890 c0 -5 7 -10 15 -10 8 0 15 5 15 10 0 6 -7 10 -15 10 -8 0
-15 -4 -15 -10z"/>
<path d="M5070 5890 c0 -5 7 -10 15 -10 8 0 15 5 15 10 0 6 -7 10 -15 10 -8 0
-15 -4 -15 -10z"/>
<path d="M5130 5890 c0 -5 7 -10 15 -10 8 0 15 5 15 10 0 6 -7 10 -15 10 -8 0
-15 -4 -15 -10z"/>
<path d="M6877 6233 c-11 -10 -8 -43 3 -43 6 0 10 11 10 25 0 26 -2 29 -13 18z"/>
<path d="M6937 6233 c-11 -10 -8 -43 3 -43 6 0 10 11 10 25 0 26 -2 29 -13 18z"/>
<path d="M7004 6226 c-6 -17 2 -36 17 -36 12 0 12 37 -1 45 -6 3 -13 -1 -16
-9z"/>
<path d="M7074 6226 c-6 -17 2 -36 17 -36 12 0 12 37 -1 45 -6 3 -13 -1 -16
-9z"/>
<path d="M7144 6225 c-3 -8 -3 -19 1 -25 11 -18 25 -11 25 15 0 27 -17 34 -26
10z"/>
<path d="M7217 6233 c-11 -10 -8 -43 3 -43 6 0 10 11 10 25 0 26 -2 29 -13 18z"/>
<path d="M6865 6121 c-7 -23 4 -71 16 -71 5 0 9 20 9 45 0 46 -14 60 -25 26z"/>
<path d="M6930 6095 c0 -25 5 -45 10 -45 6 0 10 20 10 45 0 25 -4 45 -10 45
-5 0 -10 -20 -10 -45z"/>
<path d="M7007 6133 c-4 -3 -7 -24 -7 -45 0 -54 24 -45 28 10 3 39 -5 52 -21
35z"/>
<path d="M7077 6133 c-4 -3 -7 -24 -7 -45 0 -49 23 -47 28 2 3 32 -8 56 -21
43z"/>
<path d="M7150 6095 c0 -25 5 -45 10 -45 6 0 10 20 10 45 0 25 -4 45 -10 45
-5 0 -10 -20 -10 -45z"/>
<path d="M7210 6095 c0 -25 5 -45 10 -45 6 0 10 20 10 45 0 25 -4 45 -10 45
-5 0 -10 -20 -10 -45z"/>
<path d="M7123 6075 c0 -27 2 -38 4 -22 2 15 2 37 0 50 -2 12 -4 0 -4 -28z"/>
<path d="M6864 5975 c-7 -28 0 -55 16 -55 5 0 10 18 10 40 0 44 -16 54 -26 15z"/>
<path d="M6930 5966 c0 -19 5 -38 10 -41 6 -4 10 10 10 34 0 23 -4 41 -10 41
-5 0 -10 -15 -10 -34z"/>
<path d="M7006 5993 c-3 -3 -6 -21 -6 -40 0 -23 5 -33 15 -33 10 0 15 10 15
34 0 34 -11 52 -24 39z"/>
<path d="M7076 5993 c-3 -3 -6 -21 -6 -40 0 -23 5 -33 15 -33 10 0 15 10 15
34 0 34 -11 52 -24 39z"/>
<path d="M7150 5960 c0 -22 5 -40 10 -40 6 0 10 18 10 40 0 22 -4 40 -10 40
-5 0 -10 -18 -10 -40z"/>
<path d="M7210 5960 c0 -22 5 -40 10 -40 6 0 10 18 10 40 0 22 -4 40 -10 40
-5 0 -10 -18 -10 -40z"/>
<path d="M6867 5894 c-8 -8 1 -24 14 -24 5 0 9 7 9 15 0 15 -12 20 -23 9z"/>
<path d="M7010 5890 c-8 -5 -11 -12 -7 -16 4 -4 13 -2 19 4 15 15 7 24 -12 12z"/>
<path d="M6925 5880 c3 -5 10 -10 16 -10 5 0 9 5 9 10 0 6 -7 10 -16 10 -8 0
-12 -4 -9 -10z"/>
<path d="M7070 5880 c0 -5 7 -10 15 -10 8 0 15 5 15 10 0 6 -7 10 -15 10 -8 0
-15 -4 -15 -10z"/>
<path d="M7150 5880 c0 -5 5 -10 10 -10 6 0 10 5 10 10 0 6 -4 10 -10 10 -5 0
-10 -4 -10 -10z"/>
<path d="M7210 5880 c0 -5 5 -10 10 -10 6 0 10 5 10 10 0 6 -4 10 -10 10 -5 0
-10 -4 -10 -10z"/>
<path d="M3483 5686 c-58 -27 -137 -96 -158 -136 -9 -18 7 -6 47 33 34 33 81
68 105 79 57 25 131 33 162 16 29 -15 39 -38 18 -38 -38 0 -187 -80 -187 -101
0 -5 19 5 43 21 50 35 149 72 171 64 9 -3 16 -13 16 -20 0 -31 -45 -101 -97
-151 l-55 -53 -31 26 c-16 14 -43 28 -58 31 -33 6 -35 10 -13 41 24 35 -1 26
-29 -11 -18 -24 -41 -38 -83 -51 -71 -22 -130 -55 -164 -91 -22 -24 -19 -23
27 8 55 37 150 77 183 77 11 0 20 -6 20 -14 0 -22 49 -56 81 -56 35 0 36 -9 5
-59 -29 -45 -88 -94 -147 -121 -24 -11 -37 -20 -29 -20 58 0 168 88 205 165
18 36 43 67 76 91 76 58 122 132 123 199 1 16 7 20 34 19 68 -4 68 -10 4 -78
-32 -35 -107 -126 -165 -202 -97 -127 -157 -187 -226 -223 -36 -19 -138 -31
-190 -21 -81 15 -101 69 -56 149 33 57 24 65 -12 10 -39 -59 -39 -121 0 -154
51 -45 147 -57 242 -31 107 28 157 70 251 212 79 118 94 136 94 110 0 -9 11
-23 25 -32 50 -33 128 5 164 79 52 108 -2 197 -120 197 -30 0 -54 8 -81 27
-56 38 -127 42 -195 9z m372 -106 c21 -40 19 -83 -5 -130 -44 -87 -161 -89
-129 -3 4 11 27 39 50 62 49 47 43 54 -10 14 l-36 -28 35 44 c19 23 39 49 45
57 16 22 33 17 50 -16z m-386 -145 c54 -27 44 -65 -14 -51 -26 7 -50 40 -40
56 8 14 21 13 54 -5z"/>
<path d="M8070 5656 c-50 -17 -117 -66 -171 -123 -31 -33 -59 -53 -90 -62 -59
-18 -149 -64 -187 -96 -45 -38 -76 -107 -69 -156 10 -79 51 -111 164 -132 70
-13 74 -17 92 -82 22 -84 111 -154 195 -155 66 0 152 29 193 66 l38 34 -59
-35 c-70 -41 -108 -50 -183 -42 -88 9 -150 71 -168 169 l-7 36 104 50 c64 32
139 79 198 126 88 70 110 84 110 71 0 -3 -34 -55 -75 -116 -41 -60 -75 -116
-75 -124 0 -31 56 -17 101 26 l44 41 -47 -33 c-27 -18 -51 -29 -54 -26 -13 13
146 225 187 250 11 7 19 20 19 29 0 26 129 150 178 172 53 24 74 11 48 -28
-24 -37 -113 -105 -171 -132 -27 -13 -42 -23 -32 -23 24 -1 126 51 166 85 55
46 81 123 44 125 -61 4 -102 -21 -218 -132 -45 -43 -88 -79 -94 -79 -7 0 -11
3 -9 8 55 110 68 141 68 160 0 20 -19 46 -91 120 -26 26 -91 29 -149 8z m145
-27 c17 -17 18 -21 5 -29 -8 -5 -26 -10 -40 -10 -46 0 -98 -20 -158 -60 -38
-25 -71 -40 -91 -40 -17 0 -31 3 -31 6 0 33 109 120 183 146 59 21 103 17 132
-13z m9 -58 c10 -16 -55 -100 -102 -131 l-46 -30 -37 42 c-34 39 -36 44 -21
56 62 49 191 89 206 63z m57 -25 c9 -18 6 -33 -11 -73 -32 -75 -78 -115 -138
-121 -63 -6 -77 12 -36 45 93 75 117 99 134 134 23 45 36 49 51 15z m-329
-113 c3 -36 5 -39 48 -49 25 -6 43 -15 41 -20 -2 -5 -25 -17 -52 -27 -30 -11
-76 -43 -119 -83 -60 -55 -75 -64 -108 -64 -48 0 -86 20 -90 46 -4 25 39 79
79 100 64 33 76 34 105 12 l27 -21 -12 21 c-7 13 -8 23 -1 27 6 4 5 13 -2 25
-9 14 -9 25 0 44 9 21 19 26 46 26 33 0 35 -2 38 -37z m-111 -16 c-6 -16 -26
-33 -56 -46 -95 -42 -143 -97 -130 -148 7 -29 57 -53 110 -53 34 0 36 -2 33
-27 -3 -26 -6 -28 -58 -31 -114 -6 -189 67 -161 158 22 75 89 132 198 169 64
22 79 17 64 -22z m179 23 c24 -24 18 -40 -14 -40 -29 0 -49 22 -40 44 8 22 30
20 54 -4z m118 -120 c-12 -37 -298 -214 -306 -190 -7 21 27 55 74 74 56 22
134 72 134 86 0 13 51 39 78 40 13 0 22 -5 20 -10z m-118 -20 c-16 -30 -135
-99 -148 -85 -10 9 50 64 92 85 54 26 70 26 56 0z"/>
<path d="M6106 5598 c-32 -18 -103 -74 -158 -125 -69 -65 -107 -93 -124 -93
-19 0 -24 5 -24 26 0 67 -53 99 -151 91 -155 -13 -309 -152 -309 -280 0 -42 5
-53 30 -77 17 -16 50 -35 73 -43 39 -13 42 -17 48 -59 13 -87 64 -148 141
-168 52 -14 103 -6 165 28 59 32 81 49 108 81 13 16 2 11 -35 -16 -100 -74
-158 -92 -228 -74 -62 17 -99 54 -118 117 -17 59 -9 84 25 84 9 0 43 13 76 29
58 28 115 73 222 179 29 29 60 52 68 52 20 0 9 -21 -42 -80 -69 -79 -103 -132
-103 -162 0 -22 4 -28 23 -28 27 1 94 46 116 80 12 18 3 14 -38 -18 -29 -24
-56 -41 -58 -38 -12 11 76 145 140 213 20 21 43 34 71 38 59 10 141 51 171 86
26 31 33 59 15 59 -5 0 -10 -6 -10 -14 0 -36 -132 -116 -192 -116 -17 0 -5 19
87 130 52 63 95 118 95 123 0 14 -25 6 -84 -25z m-17 -63 c-57 -79 -130 -155
-150 -155 -27 0 -24 11 17 64 34 45 140 136 157 136 5 0 -6 -20 -24 -45z
m-354 -67 c26 -12 41 -47 32 -72 -3 -7 -34 -27 -69 -43 -35 -16 -90 -55 -123
-85 -77 -71 -92 -79 -122 -65 -34 15 -39 50 -13 92 12 19 25 35 28 35 4 1 23
15 42 32 l35 31 -40 -23 c-22 -13 -48 -30 -59 -39 -20 -17 -46 -71 -46 -96 0
-25 38 -55 70 -55 23 0 30 -5 30 -19 0 -55 -30 -65 -87 -30 -44 27 -66 71 -58
112 11 50 70 132 121 168 84 57 201 83 259 57z m-21 -175 c-44 -37 -133 -88
-140 -80 -10 10 52 67 111 102 71 42 89 29 29 -22z m106 47 c0 -5 -30 -42 -67
-81 -70 -74 -150 -133 -198 -145 -25 -6 -26 -5 -23 22 3 25 14 35 77 68 41 21
99 63 129 92 51 50 82 67 82 44z"/>
<path d="M4514 5466 c43 -12 65 -28 66 -48 0 -11 -21 -21 -60 -29 l-35 -7 38
-1 c109 -3 100 86 -10 95 l-48 4 49 -14z"/>
<path d="M4293 5453 c9 -2 23 -2 30 0 6 3 -1 5 -18 5 -16 0 -22 -2 -12 -5z"/>
<path d="M4254 5435 c-13 -33 25 -65 77 -65 32 0 21 17 -12 18 -39 1 -61 19
-54 43 7 22 -3 26 -11 4z"/>
<path d="M4379 5430 c24 -11 46 -18 48 -16 7 7 -54 36 -74 36 -10 0 2 -9 26
-20z"/>
<path d="M7238 5335 c-51 -34 -67 -105 -26 -113 13 -2 16 4 16 28 -1 35 35 80
65 80 10 0 17 5 15 13 -8 21 -32 18 -70 -8z"/>
<path d="M3310 5343 c-35 -14 -101 -66 -114 -91 -12 -23 -12 -33 -1 -58 14
-34 32 -44 73 -43 l27 1 -28 8 c-58 18 -71 49 -41 95 23 35 72 63 140 79 l59
14 -50 0 c-27 0 -57 -2 -65 -5z"/>
<path d="M6441 5314 c-38 -33 -156 -195 -131 -179 6 3 10 -5 10 -19 0 -17 6
-26 16 -26 9 0 14 6 11 13 -10 28 107 211 143 222 11 3 20 11 20 16 0 19 -28
8 -69 -27z"/>
<path d="M6254 5321 c-37 -23 -70 -64 -116 -146 -33 -57 -33 -61 -17 -78 16
-17 19 -17 48 -2 17 8 31 21 31 27 0 6 -9 3 -19 -6 -33 -30 -42 -14 -20 34 28
62 94 147 132 171 26 15 28 19 12 19 -11 0 -34 -9 -51 -19z"/>
<path d="M6339 5327 c-9 -7 -19 -22 -23 -34 -4 -12 -27 -50 -52 -83 -35 -47
-44 -69 -42 -93 4 -36 28 -50 28 -16 0 13 29 69 65 126 36 56 65 105 65 108 0
9 -25 5 -41 -8z"/>
<path d="M6527 5323 c-9 -10 -53 -72 -96 -138 -44 -66 -89 -129 -100 -139 -11
-10 -18 -22 -15 -27 5 -9 -58 -107 -115 -177 -24 -30 -40 -42 -53 -39 -11 3
-18 0 -18 -9 0 -8 5 -14 11 -14 22 0 101 65 138 114 101 134 151 204 151 211
0 4 32 55 70 114 39 59 70 111 70 114 0 13 -27 7 -43 -10z"/>
<path d="M6601 5304 c-97 -87 -125 -253 -37 -213 14 7 26 17 26 23 0 5 6 2 13
-8 17 -23 51 -14 73 20 22 33 35 30 27 -7 -5 -26 -3 -30 12 -28 10 2 19 12 21
22 1 11 30 64 64 119 34 55 59 102 57 104 -11 11 -37 -12 -66 -56 -38 -59
-125 -156 -153 -171 -25 -13 -39 -1 -15 12 16 9 24 39 11 39 -4 0 -22 -13 -41
-30 -38 -34 -63 -39 -63 -11 0 30 42 83 89 110 52 31 86 73 78 95 -11 27 -54
18 -96 -20z m70 -2 c-11 -22 -39 -46 -70 -62 l-23 -12 18 32 c22 37 63 72 75
64 5 -3 5 -12 0 -22z"/>
<path d="M6897 5298 c-53 -68 -72 -100 -86 -146 -18 -63 7 -85 45 -39 10 12
12 16 4 10 -8 -7 -18 -13 -22 -13 -18 0 -6 29 43 100 72 108 83 130 65 130 -8
0 -30 -19 -49 -42z"/>
<path d="M7015 5314 c-30 -32 -115 -186 -115 -207 0 -8 6 -17 13 -20 19 -7 74
19 89 42 17 28 24 26 23 -6 0 -18 6 -29 17 -31 12 -2 15 2 12 15 -3 11 19 56
55 115 34 53 61 101 61 107 0 26 -23 6 -68 -56 -26 -38 -71 -93 -101 -123 -78
-78 -78 -45 -2 79 34 54 61 101 61 105 0 14 -23 4 -45 -20z"/>
<path d="M7323 5313 c-14 -16 -43 -54 -63 -86 -21 -32 -41 -58 -45 -57 -3 1
-10 -2 -13 -6 -4 -4 -1 -4 5 0 9 5 12 -4 10 -31 -2 -34 1 -38 22 -38 15 0 32
12 49 35 l26 35 -32 -29 c-17 -16 -35 -27 -38 -23 -4 3 23 54 60 112 36 59 66
108 66 111 0 13 -24 1 -47 -23z"/>
<path d="M3641 5284 c-49 -52 -80 -115 -81 -161 0 -36 16 -51 33 -33 9 9 8 11
-3 8 -24 -5 -13 36 27 104 43 73 88 126 100 115 7 -8 -41 -112 -80 -170 -31
-45 -14 -41 30 8 22 25 39 46 37 48 -2 1 3 21 11 42 22 62 19 85 -9 85 -15 0
-38 -16 -65 -46z"/>
<path d="M3790 5272 c-64 -66 -92 -134 -72 -177 16 -36 36 -31 88 20 24 25 47
45 49 45 3 0 5 -16 5 -35 0 -68 55 -56 118 25 l35 45 -33 -35 c-34 -36 -79
-70 -92 -70 -31 0 30 130 90 193 32 34 48 35 26 2 -20 -31 -9 -49 12 -20 31
42 -5 85 -43 53 -9 -7 -54 -57 -100 -110 -84 -98 -115 -124 -133 -113 -23 14
97 215 128 215 13 0 13 -3 -2 -19 -10 -11 -16 -26 -14 -33 3 -8 11 -3 22 15
20 30 15 57 -11 57 -9 0 -42 -26 -73 -58z"/>
<path d="M4098 5303 c-14 -16 -35 -46 -46 -68 -11 -22 -29 -58 -41 -80 -23
-44 -26 -61 -10 -70 14 -10 59 3 59 16 0 8 -4 8 -13 0 -24 -19 -27 0 -6 40 11
22 40 70 64 108 25 38 45 72 45 75 0 15 -29 3 -52 -21z"/>
<path d="M4223 5308 c-67 -76 -113 -150 -113 -183 0 -18 5 -37 11 -41 13 -8
56 23 78 56 12 20 8 18 -17 -7 -71 -69 -58 -26 29 104 27 40 49 77 49 83 0 17
-15 12 -37 -12z"/>
<path d="M4303 5279 c-38 -54 -93 -162 -93 -184 0 -21 31 -27 54 -10 12 8 31
22 44 31 21 16 22 16 22 -9 0 -36 24 -40 51 -9 19 21 19 23 3 9 -23 -19 -34
-22 -34 -9 0 5 32 58 70 118 41 63 66 110 60 112 -16 6 -33 -13 -110 -115 -63
-84 -114 -133 -126 -121 -7 8 17 54 77 149 54 84 56 89 34 89 -8 0 -32 -23
-52 -51z"/>
<path d="M4531 5294 c-76 -68 -114 -148 -95 -198 13 -34 89 -3 116 47 8 15 -2
10 -30 -15 -44 -40 -57 -45 -67 -28 -15 24 123 235 142 216 3 -3 -2 -15 -11
-25 -10 -11 -16 -26 -14 -33 3 -8 11 -3 22 15 20 29 15 57 -9 57 -8 0 -33 -16
-54 -36z"/>
<path d="M4665 5289 c-22 -23 -34 -38 -27 -34 11 6 12 3 2 -14 -6 -12 -16 -18
-22 -15 -7 4 -8 3 -4 -4 4 -6 -11 -39 -34 -72 -45 -69 -45 -70 -27 -70 8 0 38
36 69 80 42 60 58 76 66 68 17 -17 15 -22 -13 -64 -14 -20 -25 -47 -25 -60 0
-27 30 -40 60 -24 27 15 25 18 -7 12 l-26 -5 28 49 c31 55 51 132 30 114 -11
-9 -45 -5 -45 5 0 2 9 20 21 39 30 51 4 48 -46 -5z"/>
<path d="M4801 5311 c-14 -24 -14 -31 -1 -31 14 0 32 38 21 45 -6 3 -15 -3
-20 -14z"/>
<path d="M4888 5297 c-52 -40 -130 -161 -126 -197 4 -33 33 -37 69 -11 20 15
29 18 29 8 0 -27 21 -37 51 -22 24 13 28 13 33 0 7 -19 17 -19 42 0 18 15 18
15 -8 9 -31 -7 -35 0 -13 22 16 16 20 34 7 34 -4 0 -20 -13 -35 -30 -31 -32
-47 -38 -47 -17 0 7 28 55 61 107 78 120 80 125 46 116 -14 -3 -29 -2 -32 4
-11 17 -32 11 -77 -23z m72 0 c0 -36 -141 -217 -168 -217 -19 0 -14 19 20 79
55 96 148 183 148 138z"/>
<path d="M5063 5295 c-42 -42 -44 -88 -3 -93 20 -3 22 -2 11 11 -23 29 39 111
69 92 6 -3 10 1 10 9 0 29 -50 18 -87 -19z"/>
<path d="M6039 5318 c-26 -23 -74 -83 -55 -68 24 18 23 15 -47 -88 -47 -71
-56 -100 -21 -71 9 7 36 41 61 76 43 60 73 80 73 48 0 -8 -11 -31 -25 -52 -34
-49 -30 -77 10 -80 17 -1 22 1 12 4 -16 4 -15 10 13 60 17 30 29 62 25 70 -3
9 3 25 12 36 18 20 18 20 -10 2 -38 -24 -57 -7 -33 29 26 41 18 61 -15 34z"/>
<path d="M6152 5318 c-14 -14 -16 -38 -2 -38 9 0 30 31 30 44 0 10 -15 7 -28
-6z"/>
<path d="M8330 5262 c-94 -99 -124 -211 -50 -187 11 4 20 10 20 15 0 5 -7 7
-15 4 -53 -21 54 158 127 213 31 22 31 23 8 23 -17 0 -44 -20 -90 -68z"/>
<path d="M8577 5310 c-15 -12 -36 -35 -48 -53 -22 -32 -22 -32 17 6 56 52 61
46 16 -16 -45 -60 -82 -129 -82 -152 0 -17 45 -21 55 -5 3 6 -1 7 -9 4 -27
-10 -18 18 25 81 54 80 81 134 74 145 -9 15 -19 12 -48 -10z"/>
<path d="M8708 5303 c-37 -41 -133 -173 -152 -210 -9 -18 -33 -45 -53 -60
-111 -85 -188 -174 -199 -233 -10 -46 17 -39 82 23 57 53 234 271 234 288 0 6
27 50 60 100 34 49 63 96 66 104 10 24 -10 17 -38 -12z m-249 -367 c-57 -82
-125 -153 -135 -143 -10 10 12 53 48 100 28 35 122 117 134 117 3 0 -18 -33
-47 -74z"/>
<path d="M8785 5289 c-22 -23 -34 -38 -27 -34 11 6 12 3 2 -14 -6 -12 -15 -19
-20 -16 -5 3 -12 0 -16 -6 -4 -8 -3 -9 4 -5 20 12 13 -3 -29 -65 -22 -33 -38
-63 -35 -66 9 -10 45 27 88 90 21 31 45 57 53 57 21 0 19 -12 -10 -66 -30 -57
-31 -70 -5 -84 19 -10 60 1 60 16 0 3 -9 2 -20 -1 -26 -8 -26 8 2 53 11 19 24
51 28 71 6 36 6 37 -22 33 -34 -5 -34 -3 -7 42 30 51 4 48 -46 -5z"/>
<path d="M8917 5312 c-21 -23 -21 -32 -2 -32 12 0 35 28 35 44 0 12 -17 5 -33
-12z"/>
<path d="M5146 5266 c-25 -29 -46 -57 -46 -63 0 -5 -8 -18 -19 -29 -25 -27
-36 -88 -17 -103 10 -9 19 -7 37 9 23 21 23 21 2 10 -36 -17 -29 1 42 114 36
57 65 106 65 110 0 18 -23 0 -64 -48z"/>
<path d="M8455 5298 c-8 -13 -39 -57 -68 -98 -52 -75 -62 -115 -31 -127 21 -8
55 18 94 73 l34 49 -57 -59 c-31 -33 -59 -57 -63 -53 -4 4 17 44 46 89 92 144
94 148 76 148 -8 0 -22 -10 -31 -22z"/>
<path d="M5150 5148 c-15 -21 -17 -28 -6 -19 16 13 41 51 33 51 -2 0 -14 -15
-27 -32z"/>
<path d="M7110 5134 c-6 -14 -10 -30 -10 -35 0 -14 34 -11 56 6 22 17 12 20
-16 5 -24 -13 -35 3 -15 20 17 14 20 30 5 30 -6 0 -15 -12 -20 -26z"/>
<path d="M6279 5103 c-13 -16 -12 -17 4 -4 9 7 17 15 17 17 0 8 -8 3 -21 -13z"/>
<path d="M6249 4973 l-24 -28 28 24 c25 23 32 31 24 31 -2 0 -14 -12 -28 -27z"/>
<path d="M6189 4903 c-13 -16 -12 -17 4 -4 16 13 21 21 13 21 -2 0 -10 -8 -17
-17z"/>
<path d="M358 4662 l-48 -3 0 -102 c0 -56 5 -212 10 -347 5 -135 16 -450 25
-700 8 -250 17 -509 20 -575 2 -66 7 -194 10 -285 6 -213 14 -444 20 -595 3
-66 10 -271 16 -455 6 -184 14 -357 18 -385 l6 -50 45 -1 c34 0 46 -5 48 -17
2 -9 10 -17 18 -17 9 0 282 56 607 125 896 190 1071 227 1757 374 283 61 646
137 805 171 160 33 301 65 314 70 l24 11 -7 852 c-4 469 -9 853 -10 855 -3 3
-241 -8 -1056 -48 -338 -16 -716 -34 -840 -40 -124 -5 -261 -12 -305 -15 -44
-3 -183 -10 -310 -15 -126 -6 -408 -19 -625 -30 -217 -11 -407 -20 -421 -20
l-27 0 -6 123 c-3 67 -10 248 -16 402 -5 154 -12 365 -16 469 l-7 189 239 -7
c132 -4 268 -9 304 -11 36 -2 148 -7 250 -10 102 -3 239 -8 305 -10 66 -3 314
-12 550 -20 643 -23 1226 -44 1539 -56 154 -6 299 -8 323 -4 43 6 55 23 31 43
-7 5 -114 13 -238 16 -124 4 -265 9 -315 12 -49 2 -400 15 -780 29 -932 33
-952 34 -1255 45 -421 16 -503 19 -715 25 -110 4 -209 7 -220 9 -11 1 -41 0
-67 -2z"/>
<path d="M11407 4614 c-2 -1 -90 -5 -542 -20 -77 -2 -327 -11 -555 -19 -458
-16 -862 -30 -1340 -45 -518 -16 -631 -20 -726 -26 -86 -5 -92 -7 -96 -29 -5
-23 -4 -23 71 -19 71 4 398 15 1896 64 837 27 1184 39 1360 46 149 5 150 5
130 -14 -17 -17 -45 -22 -190 -32 -93 -7 -195 -11 -225 -10 -69 4 -50 4 -335
-5 -282 -8 -311 -10 -346 -19 -15 -4 -29 -4 -32 1 -3 4 -59 5 -124 1 -65 -4
-282 -12 -483 -18 -375 -11 -699 -21 -1225 -40 -165 -6 -360 -12 -433 -13
-124 -2 -133 -3 -137 -22 -2 -11 -7 -196 -10 -411 l-7 -391 144 -6 c79 -4 222
-11 318 -17 96 -5 321 -16 500 -25 424 -20 511 -26 504 -36 -3 -5 -20 -9 -37
-9 -43 0 -143 -65 -190 -122 -56 -68 -89 -153 -111 -284 -5 -29 2 -24 88 61
51 51 108 101 126 110 50 26 91 13 140 -43 23 -26 41 -40 40 -32 -4 27 0 37
25 64 17 19 34 26 60 26 31 0 46 -9 100 -61 35 -33 83 -88 107 -121 23 -33 51
-70 61 -82 18 -21 18 -20 12 41 -13 131 -63 247 -139 325 -59 61 -71 69 -143
103 -60 28 -68 40 -20 31 17 -3 133 -10 257 -16 475 -22 1431 -71 1553 -79 71
-5 133 -13 139 -19 7 -7 7 -101 -1 -294 -6 -155 -14 -355 -17 -443 -3 -88 -11
-166 -16 -172 -7 -9 -7 -13 1 -13 8 0 10 -23 7 -77 -3 -43 -5 -93 -5 -111 l-1
-34 -67 7 c-38 3 -147 17 -243 30 -182 25 -452 62 -700 95 -80 11 -244 33
-365 49 -121 16 -300 40 -397 53 -98 13 -178 26 -178 29 0 4 16 10 35 13 46 9
122 49 158 84 74 70 134 194 144 299 l6 61 -44 6 c-107 15 -722 67 -727 62
-12 -13 29 -208 56 -268 46 -100 177 -228 233 -228 10 0 21 -5 25 -12 5 -8 -4
-9 -32 -4 -21 4 -154 22 -294 41 -140 19 -340 46 -445 60 -384 52 -639 85
-660 85 l-22 0 -6 -417 c-4 -229 -5 -419 -2 -421 6 -6 1336 -297 1840 -403
105 -21 219 -46 255 -54 36 -7 101 -21 145 -30 44 -10 116 -26 160 -36 44 -10
123 -28 175 -39 52 -11 124 -26 160 -34 239 -54 720 -156 733 -156 8 0 18 7
21 16 5 13 15 15 41 11 45 -7 65 12 65 63 0 36 23 708 55 1610 8 234 17 499
20 590 8 246 14 405 21 600 17 466 19 547 15 573 l-3 28 -164 -2 c-90 -2 -165
-3 -167 -5z"/>
<path d="M5820 4558 c-41 -4 -231 -7 -422 -6 l-347 3 -1 -547 c0 -443 2 -548
13 -548 7 0 201 62 432 138 l420 138 2 417 c2 319 -1 417 -10 416 -7 -1 -46
-6 -87 -11z"/>
<path d="M6175 4557 c-38 -5 -100 -6 -137 -4 -38 2 -68 1 -68 -2 0 -4 32 -38
70 -76 l70 -70 71 71 c39 40 70 76 68 81 -2 5 -34 5 -74 0z"/>
<path d="M6306 4548 c-3 -13 -6 -200 -6 -416 0 -233 -4 -401 -10 -411 -5 -11
-26 -21 -49 -25 -22 -3 -41 -10 -43 -15 -3 -9 -267 -100 -553 -190 -71 -23
-234 -76 -362 -118 l-231 -76 -6 -101 c-8 -132 -3 -1042 6 -1051 6 -7 130 20
533 114 222 52 325 78 330 83 1 2 6 226 10 498 4 272 9 498 12 502 2 4 259 91
571 193 312 103 588 194 614 202 l47 17 1 409 0 410 -112 -7 c-220 -14 -695
-18 -702 -7 -12 19 -43 12 -50 -11z"/>
<path d="M7130 3586 c-8 -8 -73 -32 -145 -55 -169 -52 -379 -120 -535 -172
-69 -23 -130 -43 -137 -45 -13 -3 -19 -697 -7 -831 8 -87 -13 -73 209 -139
l150 -45 245 83 245 83 3 553 c1 305 -1 560 -6 568 -7 12 -10 12 -22 0z"/>
<path d="M7128 2354 c-48 -25 -261 -94 -295 -94 -55 0 -46 -17 19 -39 105 -33
275 -81 292 -81 14 0 16 16 16 115 0 63 -1 115 -2 115 -2 -1 -15 -8 -30 -16z"/>
<path d="M5940 2335 c0 -7 130 -165 135 -165 1 0 35 36 74 80 l72 79 -118 -2
c-65 -1 -128 2 -140 6 -13 5 -23 5 -23 2z"/>
<path d="M5068 2051 c-15 -15 -18 -38 -18 -154 l0 -137 30 0 c30 0 30 0 30 59
0 33 4 62 9 66 12 7 42 -31 65 -83 18 -40 43 -56 66 -42 18 11 7 46 -34 107
l-34 52 23 48 c12 26 32 54 44 61 24 14 28 42 6 42 -29 0 -66 -33 -91 -82 -34
-68 -52 -64 -56 14 -3 66 -13 77 -40 49z"/>
<path d="M5465 2060 c-11 -5 -48 -9 -82 -9 -42 -1 -64 -5 -65 -13 -1 -7 -2
-73 -3 -145 l0 -133 95 0 c106 0 129 9 149 58 10 24 10 36 -3 65 -16 39 -18
39 -121 54 l-60 8 -3 37 -3 37 83 3 c77 3 83 5 86 26 3 18 -1 22 -25 21 -15 0
-37 -4 -48 -9z m25 -188 c20 -16 21 -21 10 -43 -17 -31 -29 -39 -63 -39 -57 0
-81 33 -61 84 9 23 85 21 114 -2z"/>
<path d="M5620 1917 c0 -139 2 -155 18 -159 35 -9 42 2 42 68 l0 64 60 0 60 0
0 -42 c0 -66 9 -88 35 -88 21 0 22 5 27 98 3 53 3 121 1 150 -5 46 -8 52 -28
52 -18 0 -24 -7 -29 -39 -3 -22 -3 -46 0 -55 9 -24 -38 -41 -84 -30 -37 9 -37
9 -42 69 -5 57 -7 60 -32 63 l-28 3 0 -154z"/>
<path d="M5930 1915 l0 -155 63 -1 c34 0 82 -4 107 -7 40 -6 45 -10 50 -37 4
-22 11 -30 25 -30 16 0 21 8 23 40 2 22 -1 56 -7 75 -5 19 -14 87 -18 150 -7
107 -9 115 -28 112 -11 -2 -23 -9 -27 -15 -4 -7 -8 -65 -8 -129 l0 -116 -27
-6 c-16 -3 -41 -2 -58 2 l-30 8 -3 132 -3 132 -29 0 -30 0 0 -155z"/>
<path d="M6360 1916 c0 -123 3 -155 14 -159 25 -10 45 16 48 63 3 48 -6 43
106 66 40 8 62 40 62 89 0 33 -6 50 -22 65 -21 19 -31 21 -100 17 -43 -3 -80
-1 -84 4 -18 30 -24 -6 -24 -145z m145 94 c22 -8 26 -15 23 -42 -4 -43 -44
-68 -82 -50 -21 9 -26 18 -26 50 0 21 3 42 7 45 9 10 48 8 78 -3z"/>
<path d="M6725 2056 c-16 -6 -32 -11 -33 -12 -6 -4 -102 -258 -102 -270 0 -6
9 -14 21 -17 16 -4 25 2 40 28 34 57 126 60 154 4 17 -31 65 -42 65 -14 0 16
-82 232 -102 268 -11 20 -16 22 -43 13z m30 -122 c16 -44 16 -46 -1 -59 -23
-18 -25 -18 -47 0 -17 12 -18 18 -7 52 23 69 31 70 55 7z"/>
<path d="M6920 1917 c0 -128 3 -156 15 -161 34 -13 45 4 45 70 l0 64 60 0 60
0 0 -65 0 -65 35 0 35 0 0 149 c0 149 -6 175 -34 152 -7 -6 -16 -8 -19 -5 -9
10 -19 -40 -15 -77 3 -31 0 -35 -32 -42 -22 -6 -45 -5 -62 2 -26 10 -28 15
-28 65 0 50 -18 87 -28 57 -3 -9 -7 -9 -18 0 -12 10 -14 -12 -14 -144z"/>
</g>
</svg>
